<svg width="23" height="20" viewBox="0 0 23 20" fill="none" xmlns="http://www.w3.org/2000/svg"><path d="M21.46 4.088c-1.027-1.262-2.422-2.26-4.184-2.99C15.513.365 13.588 0 11.5 0 9.412 0 7.487.366 5.724 1.097c-1.762.732-3.157 1.729-4.184 2.99C.513 5.35 0 6.726 0 8.215c0 1.284.387 2.486 1.161 3.607.775 1.12 1.834 2.062 3.177 2.824a8.195 8.195 0 01-.334.975c-.128.308-.243.56-.346.758a5.207 5.207 0 01-.417.654c-.176.24-.308.409-.398.507a195.068 195.068 0 00-.943 1.046l-.09.11-.077.115c-.043.064-.062.104-.058.121a.34.34 0 01-.026.128c-.021.07-.02.12.007.155v.013a.654.654 0 00.205.352c.103.09.218.135.346.135h.065a9.685 9.685 0 001.463-.282c2.242-.573 4.21-1.609 5.904-3.106.642.068 1.262.102 1.86.102 2.089 0 4.014-.366 5.777-1.097 1.762-.732 3.157-1.729 4.184-2.99C22.487 11.078 23 9.702 23 8.213c0-1.489-.513-2.864-1.54-4.126zm-1.444 7.4c-.895 1.009-2.101 1.81-3.62 2.405-1.519.595-3.15.893-4.896.893-.522 0-1.078-.035-1.669-.103l-.731-.077-.552.488a12.657 12.657 0 01-3.53 2.194 9.208 9.208 0 00.899-2.207l.346-1.232-1.116-.642c-1.113-.633-1.975-1.384-2.587-2.253-.611-.868-.917-1.781-.917-2.74 0-1.172.447-2.263 1.341-3.273.894-1.01 2.1-1.811 3.62-2.406 1.518-.595 3.15-.892 4.896-.892 1.745 0 3.377.297 4.896.892 1.519.595 2.725 1.397 3.62 2.406.894 1.01 1.341 2.1 1.341 3.273 0 1.172-.447 2.263-1.341 3.273z" fill="#CDCDCD"/></svg>