<svg width="32" height="32" viewBox="0 0 32 32" fill="none" xmlns="http://www.w3.org/2000/svg"><g clip-path="url(#clip0)" fill="#010101"><path d="M16 16a.992.992 0 00.707-.293l5-5a1 1 0 00-1.415-1.415l-4.293 4.293-4.294-4.293a1 1 0 10-1.414 1.415l5 5c.197.196.453.293.709.293z"/><path d="M16 16a1 1 0 001-1V1a1 1 0 00-2 0v14a1 1 0 001 1z"/><path d="M3 32h26c1.655 0 3-1.347 3-3V13.667c0-1.654-1.345-3-3-3h-4.667a1 1 0 000 2H29c.552 0 1 .449 1 1V29c0 .55-.448 1-1 1H3c-.552 0-1-.45-1-1V13.667c0-.551.448-1 1-1h4.667a1 1 0 000-2H3c-1.655 0-3 1.346-3 3V29c0 1.653 1.345 3 3 3z"/><path d="M16 23.995c.584 0 1.168-.139 1.7-.415l13.763-7.187c.489-.256.678-.861.424-1.35a1.004 1.004 0 00-1.35-.423l-13.76 7.187a1.69 1.69 0 01-1.557-.002L1.463 14.62a1.004 1.004 0 00-1.35.423 1.003 1.003 0 00.424 1.35l13.76 7.187a3.707 3.707 0 001.703.415z"/></g><defs><clipPath id="clip0"><path transform="matrix(-1 0 0 1 32 0)" fill="#fff" d="M0 0h32v32H0z"/></clipPath></defs></svg>