<svg width="38" height="38" viewBox="0 0 38 38" fill="none" xmlns="http://www.w3.org/2000/svg"><g clip-path="url(#clip0)"><path d="M35.957 0H2.078A1.591 1.591 0 00.66.864a1.614 1.614 0 00.125 1.68l12.412 17.484.013.018c.45.609.694 1.346.696 2.104v14.255A1.585 1.585 0 0015.49 38c.215 0 .427-.043.625-.125l6.974-2.66c.625-.19 1.04-.78 1.04-1.49V22.15a3.547 3.547 0 01.696-2.104l.013-.018L37.25 2.543c.354-.492.403-1.14.126-1.679A1.592 1.592 0 0035.957 0zM23.271 18.903a5.49 5.49 0 00-1.07 3.247v11.34l-6.366 2.427V22.15a5.488 5.488 0 00-1.07-3.247L2.714 1.93H35.32l-12.05 16.974z" fill="#000"/></g><defs><clipPath id="clip0"><path fill="#fff" d="M0 0h38v38H0z"/></clipPath></defs></svg>