<svg width="28" height="23" viewBox="0 0 28 23" fill="none" xmlns="http://www.w3.org/2000/svg"><path d="M14 23c-.399 0-.783-.133-1.082-.375a319.705 319.705 0 00-3.184-2.529l-.005-.004c-2.821-2.22-5.257-4.136-6.952-6.024C.882 11.957 0 9.956 0 7.769c0-2.124.789-4.084 2.221-5.518C3.671.799 5.66 0 7.822 0c1.616 0 3.096.472 4.4 1.402A8.648 8.648 0 0114 3.117a8.649 8.649 0 011.779-1.715A7.424 7.424 0 0120.179 0c2.162 0 4.15.8 5.6 2.25C27.211 3.686 28 5.646 28 7.77c0 2.186-.882 4.187-2.777 6.298-1.695 1.888-4.13 3.804-6.951 6.024-.964.758-2.056 1.617-3.19 2.533-.3.242-.684.375-1.082.375zM7.822 1.514c-1.699 0-3.26.626-4.395 1.763C2.275 4.431 1.64 6.027 1.64 7.77c0 1.84.74 3.484 2.4 5.333 1.604 1.787 3.99 3.664 6.752 5.838l.006.004c.965.76 2.06 1.621 3.2 2.541a377.486 377.486 0 013.21-2.546c2.763-2.173 5.148-4.05 6.752-5.837 1.66-1.85 2.4-3.494 2.4-5.333 0-1.742-.635-3.338-1.787-4.492-1.135-1.137-2.696-1.763-4.395-1.763A5.734 5.734 0 0016.782 2.6c-.9.642-1.525 1.454-1.893 2.022a1.047 1.047 0 01-.889.466c-.368 0-.7-.174-.89-.466-.366-.568-.993-1.38-1.892-2.022a5.734 5.734 0 00-3.396-1.086z" fill="#CDCDCD"/></svg>