<svg width="31" height="31" viewBox="0 0 31 31" fill="none" xmlns="http://www.w3.org/2000/svg"><g clip-path="url(#clip0)" fill="#010101"><path d="M30.03 14.532H17.76a.97.97 0 010-1.938h12.27a.969.969 0 010 1.938z"/><path d="M25.187 19.375a.97.97 0 01-.685-1.655l4.16-4.158-4.16-4.16a.969.969 0 111.37-1.37l4.844 4.844a.969.969 0 010 1.37l-4.844 4.844a.962.962 0 01-.685.285zM10.333 31.001a2.66 2.66 0 01-.8-.12l-7.774-2.59A2.607 2.607 0 010 25.835V2.585A2.586 2.586 0 012.583.002c.277 0 .539.039.801.12l7.773 2.59a2.607 2.607 0 011.76 2.456v23.25A2.586 2.586 0 0110.332 31zM2.583 1.939a.648.648 0 00-.646.646v23.25c0 .275.185.53.449.622l7.736 2.578a.704.704 0 00.211.029c.355 0 .646-.291.646-.646V5.168a.671.671 0 00-.448-.622L2.794 1.968a.701.701 0 00-.21-.029z"/><path d="M19.697 10.334a.97.97 0 01-.968-.969V3.553c0-.89-.725-1.615-1.615-1.615H2.584a.97.97 0 010-1.937h14.53a3.555 3.555 0 013.552 3.552v5.812a.97.97 0 01-.969.97zM17.114 27.125h-5.167a.969.969 0 010-1.937h5.167c.89 0 1.614-.725 1.614-1.615v-5.812a.97.97 0 011.938 0v5.812a3.555 3.555 0 01-3.552 3.552z"/></g><defs><clipPath id="clip0"><path fill="#fff" d="M0 0h31v31H0z"/></clipPath></defs></svg>